name analog
datacolumns 19
datarows 32
range 0.223 0.23850000000000002
endheader
time	ground_force_vx	ground_force_vy	ground_force_vz	ground_force_px	ground_force_py	ground_force_pz	l_ground_force_vx	l_ground_force_vy	l_ground_force_vz	l_ground_force_px	l_ground_force_py	l_ground_force_pz	ground_torque_x	ground_torque_y	ground_torque_z	l_ground_torque_x	l_ground_torque_y	l_ground_torque_z
0.223	-0.0	-0.0	-0.0	2.2878379821777344	56.22864532470703	-399.7495727539063	-2.4652647972106934	-57.40909576416016	-412.543701171875	-0.0	-0.0	-0.0	-0.0	-0.0	-0.0	104266.828125	-41807.34375	2416.1162109375
0.2235	-0.0	-0.0	-0.0	2.1474156379699707	56.52774810791016	-399.0429382324219	-2.0528452396392822	-57.59196090698242	-413.6954956054688	-0.0	-0.0	-0.0	-0.0	-0.0	-0.0	104216.3359375	-41888.33984375	2323.19189453125
0.224	-0.0	-0.0	-0.0	2.389526605606079	56.59780883789063	-398.4627990722656	-2.205228328704834	-57.40909576416016	-413.1204223632813	-0.0	-0.0	-0.0	-0.0	-0.0	-0.0	104271.8203125	-41867.5078125	2437.577392578125
0.2245	-0.0	-0.0	-0.0	3.020313024520874	56.527923583984375	-400.0257568359375	-2.553691864013672	-57.66778564453125	-413.3955078125	-0.0	-0.0	-0.0	-0.0	-0.0	-0.0	104220.265625	-41712.33203125	2295.22216796875
0.225	-0.0	-0.0	-0.0	3.0396158695220947	56.8458366394043	-399.4976806640625	-2.141745090484619	-57.75606918334961	-414.56781005859375	-0.0	-0.0	-0.0	-0.0	-0.0	-0.0	104037.359375	-42084.125	2301.84423828125
0.2255	-0.0	-0.0	-0.0	3.4597556591033936	56.67397689819336	-401.4629211425781	-1.9707447290420528	-57.57939910888672	-415.0661010742188	-0.0	-0.0	-0.0	-0.0	-0.0	-0.0	104494.8203125	-42161.703125	2249.089111328125
0.226	-0.0	-0.0	-0.0	4.001430511474609	56.41954803466797	-401.1607666015625	-2.2680482864379883	-57.48466491699219	-413.8203125	-0.0	-0.0	-0.0	-0.0	-0.0	-0.0	104351.9453125	-42244.94140625	2462.7138671875
0.2265	-0.0	-0.0	-0.0	3.912147283554077	56.30025100708008	-399.9295043945313	-2.1920032501220703	-57.56008529663086	-414.3922729492188	-0.0	-0.0	-0.0	-0.0	-0.0	-0.0	104234.1015625	-42132.64453125	2452.39794921875
0.227	-0.0	-0.0	-0.0	4.034225940704346	56.76948928833008	-401.1602783203125	-1.6226670742034912	-57.421974182128906	-412.4244689941406	-0.0	-0.0	-0.0	-0.0	-0.0	-0.0	104333.09375	-42142.8671875	2395.69970703125
0.2275	-0.0	-0.0	-0.0	4.391175270080566	56.92787551879883	-400.6108703613281	-1.843415379524231	-57.04933547973633	-413.7190856933594	-0.0	-0.0	-0.0	-0.0	-0.0	-0.0	104247.34375	-42341.96484375	2342.880859375
0.228	-0.0	-0.0	-0.0	4.424567222595215	56.70023727416992	-401.4865417480469	-1.6462652683258057	-57.320777893066406	-414.4687194824219	-0.0	-0.0	-0.0	-0.0	-0.0	-0.0	104277.4296875	-41977.53125	2492.591552734375
0.2285	-0.0	-0.0	-0.0	4.721464157104492	56.35716247558594	-401.4861145019531	-1.7676395177841189	-57.667518615722656	-413.1240234375	-0.0	-0.0	-0.0	-0.0	-0.0	-0.0	104163.640625	-42383.1171875	2429.74072265625
0.229	-0.0	-0.0	-0.0	5.386225700378418	56.02759552001953	-402.5453186035156	-1.5967941284179688	-57.4222412109375	-414.0418395996094	-0.0	-0.0	-0.0	-0.0	-0.0	-0.0	104404.9921875	-42369.0390625	2469.435546875
0.2295	-0.0	-0.0	-0.0	5.791927814483643	56.70043563842773	-401.2926330566406	-1.235312581062317	-57.84409713745117	-414.1460571289063	-0.0	-0.0	-0.0	-0.0	-0.0	-0.0	104071.78125	-42047.75	2539.97607421875
0.23	-0.0	-0.0	-0.0	5.983896255493164	56.74214172363281	-401.5656127929688	-1.6034687757492063	-57.89915466308594	-414.3641662597656	-0.0	-0.0	-0.0	-0.0	-0.0	-0.0	104431.5390625	-42328.421875	2533.028564453125
0.2305	-0.0	-0.0	-0.0	6.79363489151001	56.62505722045898	-401.8647766113281	-1.5080833435058594	-57.91074752807617	-413.5010070800781	-0.0	-0.0	-0.0	-0.0	-0.0	-0.0	104502.5390625	-42381.5234375	2604.152099609375
0.231	-0.0	-0.0	-0.0	7.075048446655273	57.13943862915039	-399.85394287109375	-1.6035308837890625	-58.27889633178711	-414.4429931640625	-0.0	-0.0	-0.0	-0.0	-0.0	-0.0	104411.59375	-42279.02734375	2686.11572265625
0.2315	-0.0	-0.0	-0.0	8.385787963867188	56.50178909301758	-401.8914794921875	-1.7606695890426636	-58.59099960327149	-415.4637756347656	-0.0	-0.0	-0.0	-0.0	-0.0	-0.0	104444.8125	-42556.1328125	2786.095458984375
0.232	-0.0	-0.0	-0.0	8.653419494628906	57.03654861450195	-398.0338134765625	-1.9927796125411987	-58.625301361083984	-414.8456115722656	-0.0	-0.0	-0.0	-0.0	-0.0	-0.0	104796.96875	-42488.375	2534.79931640625
0.2325	-0.0	-0.0	-0.0	8.969700813293457	56.59086608886719	-399.0382995605469	-1.4535311460494995	-59.16192626953125	-413.7715759277344	-0.0	-0.0	-0.0	-0.0	-0.0	-0.0	104455.140625	-42620.0	2694.755126953125
0.233	-0.0	-0.0	-0.0	10.11571979522705	55.94060516357422	-397.3551025390625	-1.7673476934432983	-59.1618537902832	-417.2362060546875	-0.0	-0.0	-0.0	-0.0	-0.0	-0.0	104782.6640625	-42417.3203125	2546.306396484375
0.2335	-0.0	-0.0	-0.0	10.84160614013672	56.56978225708008	-396.2123718261719	-1.262633204460144	-59.85464859008789	-416.483642578125	-0.0	-0.0	-0.0	-0.0	-0.0	-0.0	104739.0625	-42434.28125	2621.693115234375
0.234	-0.0	-0.0	-0.0	11.562121391296388	56.33745574951172	-395.2920837402344	-1.569072961807251	-59.840702056884766	-416.188720703125	-0.0	-0.0	-0.0	-0.0	-0.0	-0.0	104682.359375	-42630.38671875	2710.458740234375
0.23450000000000001	-0.0	-0.0	-0.0	12.029248237609863	56.16631317138672	-396.2117919921875	-1.2628505229949951	-59.94961929321289	-415.8670043945313	-0.0	-0.0	-0.0	-0.0	-0.0	-0.0	104682.9921875	-42769.8203125	2534.982177734375
0.23500000000000001	-0.0	-0.0	-0.0	12.400260925292969	56.130836486816406	-395.4488830566406	-1.1882059574127195	-59.82163619995117	-415.86712646484375	-0.0	-0.0	-0.0	-0.0	-0.0	-0.0	104934.7734375	-42516.06640625	2517.095703125
0.23550000000000001	-0.0	-0.0	-0.0	12.83201789855957	55.57109451293945	-394.9683532714844	-1.2419509887695312	-59.70545959472656	-416.8040466308594	-0.0	-0.0	-0.0	-0.0	-0.0	-0.0	104862.9765625	-42759.12890625	2510.095703125
0.23600000000000002	-0.0	-0.0	-0.0	13.627655029296877	56.32323455810547	-393.1177368164063	-1.41937255859375	-59.889137268066406	-416.2443237304688	-0.0	-0.0	-0.0	-0.0	-0.0	-0.0	104949.2421875	-42854.95703125	2482.64501953125
0.23650000000000002	-0.0	-0.0	-0.0	13.902398109436035	56.15215301513672	-394.3876647949219	-1.100034475326538	-60.11172103881836	-417.26416015625	-0.0	-0.0	-0.0	-0.0	-0.0	-0.0	105023.0234375	-42711.42578125	2487.601318359375
0.23700000000000002	-0.0	-0.0	-0.0	13.99880313873291	56.23404693603516	-395.0362243652344	-1.1072914600372314	-60.35526657104492	-418.3116760253906	-0.0	-0.0	-0.0	-0.0	-0.0	-0.0	105082.046875	-43041.90625	2534.989501953125
0.23750000000000002	-0.0	-0.0	-0.0	14.62324047088623	55.98844528198242	-395.4461975097656	-1.493756890296936	-59.917762756347656	-417.2362060546875	-0.0	-0.0	-0.0	-0.0	-0.0	-0.0	105072.9765625	-42965.89453125	2651.0869140625
0.23800000000000002	-0.0	-0.0	-0.0	14.794304847717283	55.766380310058594	-395.5325622558594	-1.4936844110488892	-60.30937957763672	-420.18017578125	-0.0	-0.0	-0.0	-0.0	-0.0	-0.0	105007.5234375	-43032.76171875	2566.7978515625
0.23850000000000002	-0.0	-0.0	-0.0	15.351553916931152	55.25979232788086	-394.38568115234375	-1.2419509887695312	-60.35248947143555	-419.4448547363281	-0.0	-0.0	-0.0	-0.0	-0.0	-0.0	105555.2734375	-42800.5859375	2490.06298828125
